<svg width="22" height="22" viewBox="0 0 22 22" fill="none" xmlns="http://www.w3.org/2000/svg">
<path d="M21.7553 20.6299L21.7553 20.63C21.7639 20.7449 21.7243 20.8589 21.6458 20.9428C21.5684 21.0271 21.4579 21.075 21.3426 21.075H1.33883C1.22329 21.075 1.11267 21.0269 1.03483 20.9419C1.03473 20.9418 1.03463 20.9417 1.03453 20.9416L1.08989 20.891L21.7553 20.6299ZM21.7553 20.6299L20.644 5.85657C20.6281 5.64153 20.4467 5.47363 20.2308 5.47363H15.8868M21.7553 20.6299L15.8868 5.47363M15.8868 5.47363V1.33896C15.8868 1.11043 15.7014 0.925 15.4728 0.925H7.20753C6.979 0.925 6.79356 1.11043 6.79356 1.33896V5.47363H2.45009C2.23467 5.47363 2.05339 5.64156 2.03742 5.85648L15.8868 5.47363ZM15.4728 7.77186C15.6031 7.77186 15.7086 7.87746 15.7086 8.00599C15.7086 8.13532 15.6029 8.24121 15.4728 8.24121C15.3428 8.24121 15.2371 8.13532 15.2371 8.00599C15.2371 7.87746 15.3425 7.77186 15.4728 7.77186ZM7.62149 1.75347H15.0589V5.47418H7.62149V1.75347ZM7.20753 7.77186C7.33783 7.77186 7.44329 7.87746 7.44329 8.00599C7.44329 8.13532 7.33757 8.24121 7.20753 8.24121C7.07748 8.24121 6.97176 8.13532 6.97176 8.00599C6.97176 7.87746 7.07723 7.77186 7.20753 7.77186ZM19.8472 6.30211L20.8962 20.2476H1.78468L2.83368 6.30211H6.79356V7.03196C6.41327 7.19337 6.14383 7.56752 6.14383 8.00653C6.14383 8.59306 6.6211 9.06968 7.20753 9.06968C7.79395 9.06968 8.27122 8.59306 8.27122 8.00653C8.27122 7.56752 8.00178 7.19337 7.62149 7.03196V6.30211H15.0589V7.03196C14.6786 7.19337 14.4091 7.56752 14.4091 8.00653C14.4091 8.59306 14.8864 9.06968 15.4728 9.06968C16.0593 9.06968 16.5365 8.59306 16.5365 8.00653C16.5365 7.56752 16.2671 7.19337 15.8868 7.03196V6.30211H19.8472Z" fill="#010002" stroke="black" stroke-width="0.15"/>
</svg>
