<svg width="16" height="20" viewBox="0 0 16 20" fill="none" xmlns="http://www.w3.org/2000/svg">
<path d="M7.87173 9.63408C9.06293 9.63408 10.0943 9.15938 10.9372 8.22279C11.7798 7.28636 12.2072 6.14058 12.2072 4.81689C12.2072 3.49365 11.78 2.34771 10.9371 1.41098C10.0941 0.4747 9.06279 0 7.87173 0C6.6804 0 5.6492 0.4747 4.80641 1.41113C3.96362 2.34756 3.53625 3.49349 3.53625 4.81689C3.53625 6.14058 3.96362 7.28652 4.80641 8.22295C5.64948 9.15922 6.68082 9.63408 7.87173 9.63408ZM5.55238 2.23983C6.19907 1.5213 6.95767 1.17203 7.87173 1.17203C8.78566 1.17203 9.5444 1.5213 10.1912 2.23983C10.8379 2.95852 11.1524 3.80157 11.1524 4.81689C11.1524 5.83251 10.8379 6.6754 10.1912 7.39409C9.5444 8.11278 8.78566 8.46205 7.87173 8.46205C6.95795 8.46205 6.19934 8.11263 5.55238 7.39409C4.90556 6.67555 4.59108 5.83251 4.59108 4.81689C4.59108 3.80157 4.90556 2.95852 5.55238 2.23983Z" fill="black"/>
<path d="M15.4577 15.379C15.4333 14.9893 15.3842 14.5642 15.3118 14.1153C15.2388 13.663 15.1447 13.2354 15.0321 12.8447C14.9156 12.4408 14.7576 12.0419 14.5619 11.6597C14.359 11.2629 14.1206 10.9175 13.8531 10.6332C13.5734 10.3358 13.2309 10.0967 12.8348 9.9223C12.4401 9.74881 12.0027 9.66092 11.5349 9.66092C11.3511 9.66092 11.1734 9.74469 10.8302 9.99295C10.619 10.146 10.3719 10.323 10.0962 10.5188C9.8604 10.6857 9.54097 10.8421 9.14642 10.9837C8.76149 11.1221 8.37065 11.1923 7.98476 11.1923C7.59914 11.1923 7.2083 11.1221 6.82309 10.9837C6.42896 10.8423 6.10939 10.6859 5.87401 10.5189C5.60086 10.325 5.35367 10.148 5.1393 9.9928C4.79639 9.74454 4.61868 9.66077 4.43494 9.66077C3.96692 9.66077 3.52966 9.74881 3.13512 9.92245C2.73933 10.0966 2.3967 10.3357 2.11668 10.6334C1.84917 10.9178 1.61076 11.2631 1.40807 11.6597C1.21265 12.0419 1.05444 12.4406 0.937988 12.8448C0.825516 13.2356 0.731445 13.663 0.658386 14.1153C0.585876 14.5636 0.53685 14.9888 0.512543 15.3794C0.488647 15.7614 0.476562 16.1589 0.476562 16.5605C0.476562 17.6045 0.775253 18.4497 1.36426 19.073C1.94598 19.6881 2.71558 20 3.65175 20H12.3189C13.2548 20 14.0244 19.6881 14.6062 19.073C15.1954 18.4501 15.494 17.6046 15.494 16.5603C15.4939 16.1573 15.4817 15.7598 15.4577 15.379ZM13.8789 18.2238C13.4945 18.6303 12.9842 18.8279 12.3187 18.8279H3.65175C2.98611 18.8279 2.4758 18.6303 2.09155 18.224C1.71458 17.8253 1.53139 17.281 1.53139 16.5605C1.53139 16.1857 1.54251 15.8157 1.56476 15.4605C1.58646 15.112 1.63081 14.7291 1.69659 14.3223C1.76155 13.9206 1.84422 13.5435 1.94255 13.2022C2.0369 12.8749 2.16557 12.5508 2.32515 12.2386C2.47745 11.941 2.65268 11.6858 2.84604 11.4801C3.0269 11.2877 3.25487 11.1302 3.52348 11.0121C3.77191 10.9028 4.0511 10.843 4.35419 10.834C4.39113 10.8558 4.45691 10.8975 4.56348 10.9747C4.78032 11.1317 5.03026 11.3108 5.30656 11.5069C5.61803 11.7276 6.0193 11.9268 6.49872 12.0988C6.98885 12.2749 7.48872 12.3643 7.98489 12.3643C8.48106 12.3643 8.98108 12.2749 9.47093 12.099C9.95076 11.9267 10.3519 11.7276 10.6638 11.5066C10.9465 11.3058 11.1895 11.1319 11.4063 10.9747C11.5129 10.8976 11.5787 10.8558 11.6156 10.834C11.9188 10.843 12.198 10.9028 12.4466 11.0121C12.7151 11.1302 12.943 11.2878 13.1239 11.4801C13.3172 11.6856 13.4925 11.9409 13.6448 12.2387C13.8045 12.5508 13.9333 12.875 14.0275 13.202C14.126 13.5438 14.2088 13.9207 14.2736 14.3222C14.3392 14.7297 14.3837 15.1127 14.4054 15.4606V15.4609C14.4278 15.8148 14.4391 16.1846 14.4392 16.5605C14.4391 17.2811 14.2559 17.8253 13.8789 18.2238Z" fill="black"/>
</svg>
