<svg width="22" height="21" viewBox="0 0 22 21" fill="none" xmlns="http://www.w3.org/2000/svg">
<path d="M16.902 9.23328C16.8864 12.3258 14.9 15.2032 11.9308 16.2682C8.89401 17.3536 5.46201 16.432 3.39761 13.9898C1.35401 11.5731 1.12521 8.02496 2.76841 5.35232C4.40641 2.67968 7.67201 1.2512 10.7868 1.88096C13.9016 2.5056 16.3144 5.0144 16.8188 8.09664C16.8812 8.47552 16.902 8.8544 16.902 9.23328C16.9072 9.89376 17.9472 9.89376 17.942 9.23328C17.9264 5.67488 15.6332 2.4544 12.2428 1.2256C8.86281 0.00191951 4.90561 1.06176 2.62281 3.80608C0.324413 6.57088 -0.0135864 10.5594 1.87401 13.6365C3.76161 16.7085 7.46921 18.2906 11.0312 17.5891C14.4996 16.903 17.3076 14.0307 17.8328 10.5798C17.9004 10.1344 17.942 9.68896 17.942 9.24352C17.9472 8.57792 16.9072 8.57792 16.902 9.23328Z" fill="black"/>
<path d="M14.7752 15.1161C16.46 16.775 18.15 18.439 19.8348 20.0979C20.074 20.3334 20.3132 20.5689 20.5524 20.8045C21.0256 21.2704 21.764 20.5485 21.2856 20.0825C19.6008 18.4237 17.9108 16.7597 16.226 15.1008C15.9868 14.8653 15.7476 14.6297 15.5084 14.3942C15.0352 13.9232 14.302 14.6502 14.7752 15.1161Z" fill="black"/>
</svg>
